<svg width="65" height="48" viewBox="0 0 65 48" fill="none" xmlns="http://www.w3.org/2000/svg">
<path d="M63.7868 1.85265C58.0025 2.17932 48.259 3.05628 46.3135 10.2652C45.368 13.7689 44.1701 16.3576 46.1881 19.6976C50.2912 26.4889 59.5627 17.7533 56.0817 11.4573C49.1083 -1.15522 32.9863 -1.50621 25.5562 10.06C22.1196 15.4097 21.4803 22.27 24.2107 28.1066C25.4935 30.8487 28.5953 34.0935 31.8025 31.4769C38.9398 25.654 33.04 14.5323 24.6556 13.8113C11.1574 12.6507 4.62857 28.8267 8.04004 39.832C8.06007 39.8967 10.9254 47.9537 11.7381 46.7312C13.3436 44.3162 12.5187 35.1807 11.929 38.022C11.3449 40.8366 12.8485 43.2141 13.2887 45.7683C13.4934 46.9554 3.12865 46.5963 1.19703 46.7019" stroke="#1C1C1C" stroke-width="2" stroke-linecap="round"/>
</svg>
